<?xml version="1.0" standalone="no"?>
<!DOCTYPE svg PUBLIC "-//W3C//DTD SVG 20010904//EN"
 "http://www.w3.org/TR/2001/REC-SVG-20010904/DTD/svg10.dtd">
<svg version="1.0" xmlns="http://www.w3.org/2000/svg"
 width="433.000000pt" height="577.000000pt" viewBox="0 0 433.000000 577.000000"
 preserveAspectRatio="xMidYMid meet">

<g transform="translate(0.000000,577.000000) scale(0.100000,-0.100000)"
fill="#000000" stroke="none">
<path d="M2306 4415 c-15 -8 -36 -15 -46 -15 -10 0 -40 -20 -67 -44 l-48 -44
1 -120 c1 -108 4 -122 23 -141 l21 -21 2 63 c1 34 2 78 3 97 0 61 49 104 130
116 107 16 130 16 161 -1 38 -20 48 -39 70 -133 9 -40 19 -70 22 -67 11 10 1
142 -15 190 -20 64 -36 82 -98 111 -57 27 -117 31 -159 9z"/>
<path d="M2424 4163 c2 -16 5 -31 5 -34 1 -9 91 -6 91 3 0 3 -13 9 -30 13 -37
8 -38 20 -2 33 25 10 23 10 -21 11 -47 1 -48 0 -43 -26z"/>
<path d="M2284 4173 c-12 -2 -30 -14 -40 -25 -14 -16 -15 -20 -4 -16 46 16 60
18 60 10 0 -6 -13 -15 -30 -21 -16 -5 -30 -15 -30 -21 0 -15 49 -7 59 9 6 9
11 10 15 2 12 -19 23 -12 31 16 5 20 2 31 -11 40 -10 7 -20 12 -23 12 -3 -1
-16 -4 -27 -6z"/>
<path d="M2606 4092 c-2 -4 -1 -14 5 -22 7 -12 9 -10 9 8 0 23 -5 28 -14 14z"/>
<path d="M2130 4031 c0 -11 5 -23 10 -26 6 -4 10 5 10 19 0 14 -4 26 -10 26
-5 0 -10 -9 -10 -19z"/>
<path d="M2427 4033 c-4 -3 -20 -6 -37 -5 -39 1 -46 -12 -15 -28 23 -12 27
-11 46 9 12 12 19 24 17 27 -3 2 -8 1 -11 -3z"/>
<path d="M2484 4011 c20 -22 26 -25 26 -13 0 4 -10 13 -22 21 -23 14 -23 14
-4 -8z"/>
<path d="M2165 4010 c-3 -5 -1 -10 4 -10 6 0 11 5 11 10 0 6 -2 10 -4 10 -3 0
-8 -4 -11 -10z"/>
<path d="M2465 3970 l-30 -8 33 -1 c17 0 32 4 32 9 0 6 -1 9 -2 9 -2 -1 -16
-5 -33 -9z"/>
<path d="M2294 3961 c-2 -2 -4 -10 -4 -18 0 -16 34 -17 63 -1 12 6 36 15 52
19 20 5 8 6 -38 5 -38 0 -70 -3 -73 -5z"/>
<path d="M2370 3900 c0 -5 9 -10 19 -10 11 0 23 5 26 10 4 6 -5 10 -19 10 -14
0 -26 -4 -26 -10z"/>
<path d="M2230 3890 c0 -23 65 -112 88 -121 32 -12 86 -11 117 3 28 13 33 28
9 28 -12 0 -11 5 7 20 l24 21 -61 -6 c-52 -6 -66 -3 -109 19 -26 14 -54 31
-61 37 -11 9 -14 8 -14 -1z"/>
<path d="M2578 3689 c6 -126 2 -200 -16 -273 -12 -52 -17 -64 -20 -43 -3 24
-12 32 -34 28 -5 0 -8 3 -8 7 0 4 -11 8 -25 8 -14 0 -25 -5 -25 -10 0 -6 -5
-4 -10 4 -6 10 -10 11 -10 3 0 -23 -18 -14 -28 15 -8 20 -9 5 -5 -58 3 -47 1
-101 -4 -120 l-9 -35 -41 85 c-92 190 -104 224 -114 310 -5 47 -12 96 -14 110
l-6 25 -87 -42 c-86 -42 -253 -103 -282 -103 -26 0 -41 -16 -50 -51 -5 -19
-16 -63 -25 -99 -18 -71 -37 -154 -61 -270 -16 -81 -92 -314 -119 -367 -14
-27 -15 -42 -6 -85 5 -29 17 -104 26 -167 23 -162 76 -343 108 -370 13 -10 15
-7 14 21 -2 33 11 45 69 62 21 6 21 6 8 -31 -7 -21 -13 -49 -14 -62 0 -18 -3
-21 -13 -12 -29 23 -23 -3 19 -86 24 -48 44 -94 44 -103 0 -9 5 -21 10 -26 6
-6 15 -53 19 -105 12 -130 47 -348 72 -444 35 -141 40 -278 18 -480 -20 -187
-15 -421 12 -577 10 -56 9 -57 -26 -103 -42 -56 -44 -80 -8 -117 25 -27 26
-31 14 -61 -28 -70 -30 -67 47 -67 61 0 72 3 86 23 l17 22 -6 -22 c-6 -22 -3
-23 42 -23 l48 0 23 62 c12 35 22 86 22 115 0 28 7 78 14 110 12 46 13 91 7
213 -8 179 10 529 34 648 24 114 53 227 74 280 10 26 24 82 31 124 7 43 17 78
21 78 5 0 9 -35 9 -77 0 -58 6 -89 22 -123 11 -25 26 -72 33 -105 22 -102 47
-189 59 -204 7 -10 12 -102 13 -295 1 -155 6 -328 12 -385 6 -57 11 -129 11
-161 0 -33 5 -62 10 -65 6 -3 10 -19 10 -34 0 -46 28 -113 62 -148 l32 -33
148 0 c81 0 148 3 148 6 0 3 -11 20 -25 38 -42 55 -56 120 -44 194 14 82 8
172 -26 362 -25 140 -27 176 -26 377 1 289 35 693 59 701 7 2 12 10 12 18 0 8
7 14 16 14 12 0 14 5 9 18 -4 9 -13 64 -18 121 -11 102 -11 104 12 122 19 15
20 19 6 19 -9 0 -15 6 -12 13 2 8 25 12 66 12 l62 0 -4 205 c-3 185 -30 517
-58 724 -6 43 -16 190 -24 325 -7 145 -18 257 -25 273 -8 18 -30 34 -64 48
-28 11 -58 25 -66 31 -26 17 -201 99 -212 99 -5 0 -17 9 -27 21 -16 20 -17 18
-13 -52z m130 -122 c2 -10 -3 -17 -12 -17 -10 0 -16 9 -16 21 0 24 23 21 28
-4z m-271 -183 c-3 -3 -12 -4 -19 -1 -8 3 -5 6 6 6 11 1 17 -2 13 -5z m40 0
c-3 -3 -12 -4 -19 -1 -8 3 -5 6 6 6 11 1 17 -2 13 -5z m46 -1 c-7 -2 -19 -2
-25 0 -7 3 -2 5 12 5 14 0 19 -2 13 -5z m-584 -628 c-9 -294 -12 -320 -44
-373 -23 -38 -39 -37 -42 4 -1 29 -12 83 -32 159 -15 57 -13 142 4 226 9 40
13 74 11 76 -3 3 13 38 35 79 21 41 39 81 39 87 0 18 22 39 31 30 4 -5 3 -134
-2 -288z"/>
<path d="M2348 3633 c-27 -7 -22 -17 25 -51 33 -23 47 -28 55 -20 9 9 8 16 -2
27 -8 9 -15 19 -15 24 -1 4 -1 13 -2 20 0 6 -4 3 -9 -8 -5 -11 -9 -15 -9 -8
-1 7 -8 10 -18 6 -11 -4 -14 -3 -9 5 4 7 6 11 4 11 -2 -1 -11 -3 -20 -6z"/>
<path d="M2411 3525 c0 -12 -6 -26 -12 -32 -12 -12 17 -47 32 -38 5 4 9 2 9
-2 0 -5 11 -10 25 -11 l26 -2 -26 26 c-14 13 -25 29 -25 35 0 6 -4 8 -9 4 -5
-3 -12 5 -14 17 -4 21 -4 21 -6 3z m14 -53 c-3 -3 -11 0 -18 7 -9 10 -8 11 6
5 10 -3 15 -9 12 -12z"/>
</g>
</svg>
